HIERARCHY
ROOT hips
{
  OFFSET 0 10.6860622 2.3727825e-15
  CHANNELS 6 Xposition Yposition Zposition Yrotation Xrotation Zrotation
  JOINT leftUpperLeg
  {
    OFFSET 0.6642549969 -0.9402397400000004 0
    CHANNELS 3 Yrotation Xrotation Zrotation
    JOINT leftLowerLeg
    {
      OFFSET 0 -3.997221335632195 0
      CHANNELS 3 Yrotation Xrotation Zrotation
      JOINT leftFoot
      {
        OFFSET -0.13777839790000004 -4.6145792000000005 -0.22186036399999998
        CHANNELS 3 Yrotation Xrotation Zrotation
        JOINT leftToes
        {
          OFFSET -0.03777410834999995 -0.9130806927000008 0.85230013
          CHANNELS 3 Yrotation Xrotation Zrotation
          End Site
          {
            OFFSET -0.03777410834999995 -0.9130806927000008 0.85230013
          }
        }
      }
    }
  }
  JOINT rightUpperLeg
  {
    OFFSET -0.6642778626 -0.9402397400000004 0
    CHANNELS 3 Yrotation Xrotation Zrotation
    JOINT rightLowerLeg
    {
      OFFSET 0 -3.997221452859387 0
      CHANNELS 3 Yrotation Xrotation Zrotation
      JOINT rightFoot
      {
        OFFSET 0.1377926176 -4.6145792000000005 -0.22185782299999995
        CHANNELS 3 Yrotation Xrotation Zrotation
        JOINT rightToes
        {
          OFFSET 0.037780746850000047 -0.9130806927000008 0.85230167
          CHANNELS 3 Yrotation Xrotation Zrotation
          End Site
          {
            OFFSET 0.037780746850000047 -0.9130806927000008 0.85230167
          }
        }
      }
    }
  }
  JOINT spine
  {
    OFFSET 0 0.13988381660000015 0
    CHANNELS 3 Yrotation Xrotation Zrotation
    JOINT chest
    {
      OFFSET 0 0.6191039003973773 0
      CHANNELS 3 Yrotation Xrotation Zrotation
      JOINT upperChest
      {
        OFFSET 0 0.9855186130586943 0
        CHANNELS 3 Yrotation Xrotation Zrotation
        JOINT leftShoulder
        {
          OFFSET 0.1807663869 1.5087829790000005 0
          CHANNELS 3 Yrotation Xrotation Zrotation
          JOINT leftUpperArm
          {
            OFFSET 0.5985063006419806 0 0
            CHANNELS 3 Yrotation Xrotation Zrotation
            JOINT leftLowerArm
            {
              OFFSET 2.2993332369501065 0 0
              CHANNELS 3 Yrotation Xrotation Zrotation
              JOINT leftHand
              {
                OFFSET 2.395047042602395 0 0
                CHANNELS 3 Yrotation Xrotation Zrotation
                JOINT leftIndexProximal
                {
                  OFFSET 0.5766295810000004 0.04556643899499946 0.17265095988184
                  CHANNELS 3 Yrotation Xrotation Zrotation
                  JOINT leftIndexIntermediate
                  {
                    OFFSET 0.2957229000000008 -0.019352197700001517 -0.007932640616999987
                    CHANNELS 3 Yrotation Xrotation Zrotation
                    JOINT leftIndexDistal
                    {
                      OFFSET 0.19008243099999922 -0.012484908149998475 -0.002786250786000012
                      CHANNELS 3 Yrotation Xrotation Zrotation
                      End Site
                      {
                        OFFSET 0.19008243099999922 -0.012484908149998475 -0.002786250786000012
                      }
                    }
                  }
                }
                JOINT leftMiddleProximal
                {
                  OFFSET 0.5834975091000001 0.0524350405149987 0.02204081888183999
                  CHANNELS 3 Yrotation Xrotation Zrotation
                  JOINT leftMiddleIntermediate
                  {
                    OFFSET 0.33880573540000003 -0.019871473270000717 -0.00000971183179999946
                    CHANNELS 3 Yrotation Xrotation Zrotation
                    JOINT leftMiddleDistal
                    {
                      OFFSET 0.20676022730000088 -0.012221336379999448 0.0001471936708000235
                      CHANNELS 3 Yrotation Xrotation Zrotation
                      End Site
                      {
                        OFFSET 0.20676022730000088 -0.012221336379999448 0.0001471936708000235
                      }
                    }
                  }
                }
                JOINT leftLittleProximal
                {
                  OFFSET 0.5344154683999995 -0.012880921405001189 -0.24414037221816004
                  CHANNELS 3 Yrotation Xrotation Zrotation
                  JOINT leftLittleIntermediate
                  {
                    OFFSET 0.21758961730000093 -0.011650919939999227 0.011893592810000034
                    CHANNELS 3 Yrotation Xrotation Zrotation
                    JOINT leftLittleDistal
                    {
                      OFFSET 0.1475273964999999 -0.008152365682999818 0.006001092492999946
                      CHANNELS 3 Yrotation Xrotation Zrotation
                      End Site
                      {
                        OFFSET 0.1475273964999999 -0.008152365682999818 0.006001092492999946
                      }
                    }
                  }
                }
                JOINT leftRingProximal
                {
                  OFFSET 0.5799399463000003 0.026911854694997794 -0.12150566991816003
                  CHANNELS 3 Yrotation Xrotation Zrotation
                  JOINT leftRingIntermediate
                  {
                    OFFSET 0.26167887460000006 -0.013480186499999602 0.010996293000000053
                    CHANNELS 3 Yrotation Xrotation Zrotation
                    JOINT leftRingDistal
                    {
                      OFFSET 0.17667108799999987 -0.008990287899999228 0.0055541023999999065
                      CHANNELS 3 Yrotation Xrotation Zrotation
                      End Site
                      {
                        OFFSET 0.17667108799999987 -0.008990287899999228 0.0055541023999999065
                      }
                    }
                  }
                }
                JOINT leftThumbProximal
                {
                  OFFSET 0.11018806699999972 -0.09448718900500053 0.17047963138184
                  CHANNELS 3 Yrotation Xrotation Zrotation
                  JOINT leftThumbIntermediate
                  {
                    OFFSET 0.31062601459999983 -0.08126270900000132 0.15443142000000007
                    CHANNELS 3 Yrotation Xrotation Zrotation
                    JOINT leftThumbDistal
                    {
                      OFFSET 0.21627175790000086 -0.08833193599999878 0.018771167799999988
                      CHANNELS 3 Yrotation Xrotation Zrotation
                      End Site
                      {
                        OFFSET 0.21627175790000086 -0.08833193599999878 0.018771167799999988
                      }
                    }
                  }
                }
              }
            }
          }
        }
        JOINT neck
        {
          OFFSET 0 1.5463305265074576 0
          CHANNELS 3 Yrotation Xrotation Zrotation
          JOINT head
          {
            OFFSET 0 0.8456443600000344 0
            CHANNELS 3 Yrotation Xrotation Zrotation
            JOINT leftEye
            {
              OFFSET 0.30408573140000006 0.5104519199999995 0.1276382305
              CHANNELS 3 Yrotation Xrotation Zrotation
              End Site
              {
                OFFSET 0.30408573140000006 0.5104519199999995 0.1276382305
              }
            }
            JOINT rightEye
            {
              OFFSET -0.30409491089999996 0.5104519199999995 0.1276379445
              CHANNELS 3 Yrotation Xrotation Zrotation
              End Site
              {
                OFFSET -0.30409491089999996 0.5104519199999995 0.1276379445
              }
            }
            JOINT jaw
            {
              OFFSET -3.155239131000001e-7 -0.11984121820000082 0.60178107
              CHANNELS 3 Yrotation Xrotation Zrotation
              End Site
              {
                OFFSET -3.155239131000001e-7 -0.11984121820000082 0.60178107
              }
            }
          }
        }
        JOINT rightShoulder
        {
          OFFSET -0.1807303465 1.5087829790000005 0
          CHANNELS 3 Yrotation Xrotation Zrotation
          JOINT rightUpperArm
          {
            OFFSET -0.5985063796536958 0 0
            CHANNELS 3 Yrotation Xrotation Zrotation
            JOINT rightLowerArm
            {
              OFFSET -2.2993322059002854 0 0
              CHANNELS 3 Yrotation Xrotation Zrotation
              JOINT rightHand
              {
                OFFSET -2.395045314457259 0 0
                CHANNELS 3 Yrotation Xrotation Zrotation
                JOINT rightIndexProximal
                {
                  OFFSET -0.5764487688300002 0.0441371204405987 0.17361932004999997
                  CHANNELS 3 Yrotation Xrotation Zrotation
                  JOINT rightIndexIntermediate
                  {
                    OFFSET -0.29573011380000047 -0.01934826376999843 -0.007698921482999974
                    CHANNELS 3 Yrotation Xrotation Zrotation
                    JOINT rightIndexDistal
                    {
                      OFFSET -0.19008373999999884 -0.012503266380000655 -0.0026365778999999897
                      CHANNELS 3 Yrotation Xrotation Zrotation
                      End Site
                      {
                        OFFSET -0.19008373999999884 -0.012503266380000655 -0.0026365778999999897
                      }
                    }
                  }
                }
                JOINT rightMiddleProximal
                {
                  OFFSET -0.5834852037300005 0.05211639405060153 0.02307162440000001
                  CHANNELS 3 Yrotation Xrotation Zrotation
                  JOINT rightMiddleIntermediate
                  {
                    OFFSET -0.33880114510000003 -0.019952774050000954 0.0002455003561999819
                    CHANNELS 3 Yrotation Xrotation Zrotation
                    JOINT rightMiddleDistal
                    {
                      OFFSET -0.20675694929999955 -0.012273788999999091 0.00030209124000002766
                      CHANNELS 3 Yrotation Xrotation Zrotation
                      End Site
                      {
                        OFFSET -0.20675694929999955 -0.012273788999999091 0.00030209124000002766
                      }
                    }
                  }
                }
                JOINT rightLittleProximal
                {
                  OFFSET -0.5346811737299992 -0.011214256288399227 -0.24363941305000003
                  CHANNELS 3 Yrotation Xrotation Zrotation
                  JOINT rightLittleIntermediate
                  {
                    OFFSET -0.21757715980000092 -0.011771559690000988 0.01201554387
                    CHANNELS 3 Yrotation Xrotation Zrotation
                    JOINT rightLittleDistal
                    {
                      OFFSET -0.1475201849000004 -0.00822055339600003 0.006082065407000015
                      CHANNELS 3 Yrotation Xrotation Zrotation
                      End Site
                      {
                        OFFSET -0.1475201849000004 -0.00822055339600003 0.006082065407000015
                      }
                    }
                  }
                }
                JOINT rightRingProximal
                {
                  OFFSET -0.5800810755299999 0.027657985680600072 -0.12066365025000003
                  CHANNELS 3 Yrotation Xrotation Zrotation
                  JOINT rightRingIntermediate
                  {
                    OFFSET -0.26166445029999974 -0.013623118409999302 0.011164098990000045
                    CHANNELS 3 Yrotation Xrotation Zrotation
                    JOINT rightRingDistal
                    {
                      OFFSET -0.17666387530000027 -0.009072900100000503 0.005668185599999959
                      CHANNELS 3 Yrotation Xrotation Zrotation
                      End Site
                      {
                        OFFSET -0.17666387530000027 -0.009072900100000503 0.005668185599999959
                      }
                    }
                  }
                }
                JOINT rightThumbProximal
                {
                  OFFSET -0.10997596379000074 -0.09577489355940072 0.16989765924999997
                  CHANNELS 3 Yrotation Xrotation Zrotation
                  JOINT rightThumbIntermediate
                  {
                    OFFSET -0.31036620999999986 -0.08229339117999834 0.15440884469999996
                    CHANNELS 3 Yrotation Xrotation Zrotation
                    JOINT rightThumbDistal
                    {
                      OFFSET -0.21631306399999906 -0.08825326400000111 0.018656797720000014
                      CHANNELS 3 Yrotation Xrotation Zrotation
                      End Site
                      {
                        OFFSET -0.21631306399999906 -0.08825326400000111 0.018656797720000014
                      }
                    }
                  }
                }
              }
            }
          }
        }
      }
    }
  }
}
MOTION
Frames: 5
Frame Time: 0.03333333333333333
2.68377321856565 -2.3322794534718856 -10.57144095522599 112.43512870793609 5.3497976469665245 5.423625116822751 -0.0012420292557899137 -12.00273081914089 -12.82641293357876 -10.80506858972231 29.85960527318614 4.045726387733731 -12.106914688214072 24.50964333442477 -5.087559617768808 0 0 0 -26.830706628108985 -31.90631137555426 2.661544442441153 -126.2935085452036 83.81103113619515 -124.56307359207318 5.248971762045757 17.784684455571302 1.6061292272477516 0 0 0 0.5912039249817559 -0.6820701023982422 5.054440185352352 -0.27470889303041746 13.1045795325285 9.932573864837698 0 0 0 0 1.5275236235667615 0 2.851879172417165 -49.97082969312729 -95.40195442277435 -131.8194623367312 -19.922317332733858 5.32025241797049 -10.906617579617162 5.0382159735185885 24.515749362647885 0 0 0 0 0 0 0 0 0 0 0 0 0 0 0 0 0 0 0 0 0 0 0 0 0 0 0 0 0 0 0 0 0 0 0 0 0 0 0 0 0 0 0 0 0 -38.477357961620704 21.504642353036495 -3.948939613674006 -0.0010122533278368799 -9.334239067667037 4.998374083403619 0 0 0 0 0 0 0 0 0 0 1.5275236235667615 0 18.069457090969617 -54.52275449890071 68.05637607067557 93.97879523204564 9.99999978509566e-7 -9.999999785095658e-7 -4.381024131768406 -2.288252684921701 -4.098172073448183 0 0 0 0 0 0 0 0 0 0 0 0 0 0 0 0 0 0 0 0 0 0 0 0 0 0 0 0 0 0 0 0 0 0 0 0 0 0 0 0 0 0 0 0 0
2.68377321856565 -2.3322794534718856 -10.57144095522599 112.43512870793609 5.3497976469665245 5.423625116822751 -0.0012420292557899137 -12.00273081914089 -12.82641293357876 -10.80506858972231 29.85960527318614 4.045726387733731 -12.106914688214072 24.50964333442477 -5.087559617768808 0 0 0 -26.851081325086707 -31.863356817040934 2.6580174873924176 -126.6244129667568 83.78141980819711 -124.86222904648638 5.244818685528387 17.64223376258617 1.5924237403839798 0 0 0 0.5912039249817559 -0.6820701023982422 5.054440185352352 -0.27470886563691116 13.1045795325285 9.932573864837698 0 0 0 0 1.5275236235667615 0 2.851879172417165 -49.97082969312729 -95.40195442277435 -131.81945720754373 -19.922317332733858 5.320251965866759 -10.906617579617162 5.0382159735185885 24.515749362647885 0 0 0 0 0 0 0 0 0 0 0 0 0 0 0 0 0 0 0 0 0 0 0 0 0 0 0 0 0 0 0 0 0 0 0 0 0 0 0 0 0 0 0 0 0 -38.477357961620704 21.504642353036495 -3.948939613674006 -0.001016501660854801 -9.289408313362227 4.9983691175239855 0 0 0 0 0 0 0 0 0 0 1.5275236235667615 0 17.771714764684077 -54.060912046215726 68.29151846972239 94.155120999795 9.99999978509566e-7 -9.999999785095658e-7 -4.396268139617261 -2.2397830439421704 -4.095082837591121 0 0 0 0 0 0 0 0 0 0 0 0 0 0 0 0 0 0 0 0 0 0 0 0 0 0 0 0 0 0 0 0 0 0 0 0 0 0 0 0 0 0 0 0 0
2.68377321856565 -2.3322794534718856 -10.57144095522599 112.43512870793609 5.3497976469665245 5.423625116822751 -0.0012420292557899137 -12.00273081914089 -12.82641293357876 -10.80506858972231 29.85960527318614 4.045726387733731 -12.106914688214072 24.50964333442477 -5.087559617768808 0 0 0 -26.871444438149346 -31.82040216946175 2.6544730409857857 -126.95232069791258 83.75166586000755 -125.15838476248574 5.2407045771277545 17.499779239567648 1.5787393595949388 0 0 0 0.5912039249817559 -0.6820701023982422 5.054440185352352 -0.27470886563691116 13.1045795325285 9.932573864837698 0 0 0 0 1.5275236235667615 0 2.851879172417165 -49.97082969312729 -95.40195442277435 -131.81945720754373 -19.922317332733858 5.320251965866759 -10.906617579617162 5.0382159735185885 24.515749362647885 0 0 0 0 0 0 0 0 0 0 0 0 0 0 0 0 0 0 0 0 0 0 0 0 0 0 0 0 0 0 0 0 0 0 0 0 0 0 0 0 0 0 0 0 0 -38.477357961620704 21.504642353036495 -3.948939613674006 -0.0010207413898824474 -9.24457637576843 4.99836372067618 0 0 0 0 0 0 0 0 0 0 1.5275236235667615 0 17.48053914543628 -53.598520455933915 68.5199510134601 94.33134444260044 9.99999978509566e-7 -9.999999785095658e-7 -4.411507041773816 -2.1913182105985762 -4.092007631542352 0 0 0 0 0 0 0 0 0 0 0 0 0 0 0 0 0 0 0 0 0 0 0 0 0 0 0 0 0 0 0 0 0 0 0 0 0 0 0 0 0 0 0 0 0
2.68377321856565 -2.3322794534718856 -10.57144095522599 112.43512870793609 5.3497976469665245 5.423625116822751 -0.0012420292557899137 -12.00273081914089 -12.82641293357876 -10.80506858972231 29.85960527318614 4.045726387733731 -12.106914688214072 24.50964333442477 -5.087559617768808 0 0 0 -26.891801422254225 -31.777451426100786 2.6509122463002095 -127.27726736001839 83.72170884580588 -125.45157498649284 5.2366295955311735 17.357323594003013 1.5650764393124457 0 0 0 0.5912039249817559 -0.6820701023982422 5.054440185352352 -0.27470886563691116 13.1045795325285 9.932573864837698 0 0 0 0 1.5275236235667615 0 2.851879172417165 -49.97082969312729 -95.40195442277435 -131.81945720754373 -19.922317332733858 5.320251965866759 -10.906617579617162 5.0382159735185885 24.515749362647885 0 0 0 0 0 0 0 0 0 0 0 0 0 0 0 0 0 0 0 0 0 0 0 0 0 0 0 0 0 0 0 0 0 0 0 0 0 0 0 0 0 0 0 0 0 -38.477357961620704 21.504642353036495 -3.948939613674006 -0.0010249847729978387 -9.199744092794454 4.998358022395478 0 0 0 0 0 0 0 0 0 0 1.5275236235667615 0 17.19558314355889 -53.13546552570692 68.74199418105916 94.50756846397825 9.99999978509566e-7 -9.999999785095658e-7 -4.426743262986338 -2.1428528099247632 -4.088944924952542 0 0 0 0 0 0 0 0 0 0 0 0 0 0 0 0 0 0 0 0 0 0 0 0 0 0 0 0 0 0 0 0 0 0 0 0 0 0 0 0 0 0 0 0 0
2.68377321856565 -2.3322794534718856 -10.57144095522599 112.43512870793609 5.3497976469665245 5.423625116822751 -0.0012420292557899137 -12.00273081914089 -12.82641293357876 -10.80506858972231 29.85960527318614 4.045726387733731 -12.106914688214072 24.50964333442477 -5.087559617768808 0 0 0 -26.912150481995024 -31.734500541976637 2.647335435153645 -127.59926990057485 83.69155163891719 -125.7418219424007 5.232592921186414 17.21486773654188 1.5514346750282229 0 0 0 0.5912039249817559 -0.6820701023982422 5.054440185352352 -0.27470886563691116 13.1045795325285 9.932573864837698 0 0 0 0 1.5275236235667615 0 2.851879172417165 -49.97082969312729 -95.40195442277435 -131.81945720754373 -19.922317332733858 5.320251965866759 -10.906617579617162 5.0382159735185885 24.515749362647885 0 0 0 0 0 0 0 0 0 0 0 0 0 0 0 0 0 0 0 0 0 0 0 0 0 0 0 0 0 0 0 0 0 0 0 0 0 0 0 0 0 0 0 0 0 -38.477357961620704 21.504642353036495 -3.948939613674006 -0.0010292320276243992 -9.154912301917602 4.998352926946621 0 0 0 0 0 0 0 0 0 0 1.5275236235667615 0 16.916621844453402 -52.67175567351905 68.95787716898413 94.68379206900707 9.99999978509566e-7 -9.999999785095658e-7 -4.441976675794016 -2.094386380126974 -4.085895562360342 0 0 0 0 0 0 0 0 0 0 0 0 0 0 0 0 0 0 0 0 0 0 0 0 0 0 0 0 0 0 0 0 0 0 0 0 0 0 0 0 0 0 0 0 0
